<svg width="138" height="60" fill="none" xmlns="http://www.w3.org/2000/svg"><g clip-path="url(#Digital_india__a)"><g filter="url(#Digital_india__b)"><path fill="#fff" d="M3.633 0h131.02v60H3.633z"/></g><path fill-rule="evenodd" clip-rule="evenodd" d="m12.403 30.366-.49-.516c.447-.474.98-.85 1.568-1.107a4.639 4.639 0 0 1 3.715 0 4.803 4.803 0 0 1 1.57 1.107l-.5.497a4.108 4.108 0 0 0-1.34-.94 3.97 3.97 0 0 0-3.166 0 4.108 4.108 0 0 0-1.34.94m1.727 1.725-.45-.469a2.34 2.34 0 0 1 .77-.549 2.26 2.26 0 0 1 1.825 0c.29.128.55.314.77.55l-.45.468a1.714 1.714 0 0 0-1.22-.525 1.636 1.636 0 0 0-.66.134c-.209.09-.398.223-.558.39m1.219 1.257-.873-.89c.237-.234.547-.37.873-.385.324.01.632.148.863.385l-.863.89Zm0-2.981c.38-.003.756.075 1.106.23.35.154.665.383.926.67l.544-.567a3.597 3.597 0 0 0-1.18-.845 3.472 3.472 0 0 0-2.81 0 3.596 3.596 0 0 0-1.18.845l.539.572a2.81 2.81 0 0 1 .936-.673 2.717 2.717 0 0 1 1.114-.232m-3.287 3.6h6.408c-4.596 12.116-5.396 19.217-.733 19.03-10.23.628-8.903-9.731-5.67-19.03" fill="#0E6EB6"/><path fill-rule="evenodd" clip-rule="evenodd" d="M17.993 15.362c5.846-9.928 15.325-10.94 22.078-7.326 7.492 4.017 9.803 13.311 7.937 21.495-1.641 7.443-6.345 14.244-12.424 18.617a30.148 30.148 0 0 1-12.389 5.133c3.404-1.157 6.45-3.24 8.823-6.033a28.298 28.298 0 0 0 3.8-5.498c3.449-4.846 5.045-9.594 5.157-13.728.225-5.545-2.09-11.048-6.979-13.593-4.253-2.255-9.982-2.137-16.003.937" fill="#F26329"/><path fill-rule="evenodd" clip-rule="evenodd" d="M13.577 26.56c4.766-9.843 14.583-10.532 20.365-6.272 2.28 1.686 3.88 4.19 4.497 7.031.787 3.619.211 7.368-1.093 10.945a27.575 27.575 0 0 1-5.328 8.985c-3.292 3.792-8.004 6.684-13.04 6.627a10.803 10.803 0 0 1-5.725-1.612c2.379 1.195 6.08.773 8.341-.169 3.742-1.598 6.745-4.912 8.62-8.577 2.316-4.49 4.142-11.718.45-15.857-3.35-3.843-10.032-5.156-17.087-1.106" fill="#09A14A"/><path d="m125.541 32.198 1.133-3.39h-.4a2.476 2.476 0 0 0-1.033.18 2.551 2.551 0 0 0-.878.594 3.715 3.715 0 0 0-.98 1.899c-.099.326-.088.679.031.998a.665.665 0 0 0 .257.28.624.624 0 0 0 .364.086 2.573 2.573 0 0 0 1.511-.624m3.597-4.917-2.374 6.947h-1.929l.22-.661a3.454 3.454 0 0 1-2.033.801 1.512 1.512 0 0 1-.84-.212 1.602 1.602 0 0 1-.603-.645 3.08 3.08 0 0 1-.184-2.194 5.234 5.234 0 0 1 1.87-3.098 5.584 5.584 0 0 1 3.719-1.205 8.766 8.766 0 0 1 2.131.24m-7.86-.09-2.405 7.064h-1.929l2.414-7.064h1.92Zm-1.313-1.978c.056-.296.205-.564.425-.76.219-.197.496-.31.785-.323a.765.765 0 0 1 .357.078c.112.055.21.136.286.236a.904.904 0 0 1 .135.77 1.489 1.489 0 0 1-.45.791c-.22.19-.496.296-.782.3a.763.763 0 0 1-.35-.074.8.8 0 0 1-.284-.226.966.966 0 0 1-.113-.792m-6.048 7.378 1.237-3.67a2.712 2.712 0 0 0-.481-.038 2.665 2.665 0 0 0-1.749.61 2.663 2.663 0 0 0-.936 1.523 1.43 1.43 0 0 0 .212 1.21c.148.164.331.291.533.372.202.081.42.114.636.096.185-.01.368-.04.548-.084m4.947-8.986-3.557 10.551a13.27 13.27 0 0 1-2.271.24c-1.156 0-2.006-.31-2.554-.938-.549-.628-.702-1.44-.481-2.47a4.93 4.93 0 0 1 1.672-2.813c.882-.767 2-1.177 3.148-1.153.31.006.619.03.926.075l1.183-3.51 1.934.018Zm-13.167 3.567-.292.792a4.255 4.255 0 0 1 2.41-.937c.225-.022.451.02.655.121.203.102.377.26.501.455a2.18 2.18 0 0 1 .112 1.603 5.101 5.101 0 0 1-.166.633l-1.479 4.401h-1.92l1.425-4.218c.053-.118.092-.242.117-.37.135-.699 0-1.04-.391-1.04-.392 0-1.071.35-1.839 1.087l-1.543 4.55h-1.929l2.41-7.077h1.929Zm-2.743-3.567-3.597 10.65h-2.077l3.597-10.65h2.077Zm-8.004 0-3.597 10.65h-1.91l3.596-10.65h1.911Zm-8.543 8.597 1.124-3.39h-.4a2.456 2.456 0 0 0-1.029.18 2.54 2.54 0 0 0-.873.594 3.72 3.72 0 0 0-.99 1.856c-.104.327-.09.682.04.998a.646.646 0 0 0 .253.28.608.608 0 0 0 .36.086 2.637 2.637 0 0 0 1.515-.623m3.597-4.917-2.36 6.97h-1.92l.224-.661a3.512 3.512 0 0 1-2.028.801 1.526 1.526 0 0 1-.858-.202 1.613 1.613 0 0 1-.621-.65 3.165 3.165 0 0 1-.185-2.194 5.215 5.215 0 0 1 1.871-3.098 5.605 5.605 0 0 1 3.728-1.205 8.803 8.803 0 0 1 2.127.239m-8.355-1.603-.567 1.51h1.417l-.58 1.546h-1.426l-.845 2.306a2.525 2.525 0 0 0-.162.544c-.14.633 0 .937.391.937.42-.063.824-.208 1.192-.426l-.391 1.874c-.541.29-1.137.45-1.745.47-.26.018-.52-.031-.755-.145a1.554 1.554 0 0 1-.594-.507 2.274 2.274 0 0 1-.184-1.706c.058-.202.117-.408.184-.614l1.03-2.705h-1.304l.566-1.547h1.313l.544-1.495 1.916-.042Zm-4.7 1.51-2.4 7.063h-1.92l2.392-7.064h1.929Zm-1.326-1.979c.067-.3.225-.57.45-.768.217-.195.492-.306.778-.314a.763.763 0 0 1 .36.076.798.798 0 0 1 .287.238.99.99 0 0 1 .135.768c-.072.305-.228.58-.45.792-.22.186-.493.292-.777.3a.734.734 0 0 1-.352-.07.765.765 0 0 1-.282-.23.958.958 0 0 1-.135-.792m-6.273 10.607c.063-.328-.193-.572-.76-.698l-.805-.202a2.044 2.044 0 0 0-.764.202.839.839 0 0 0-.381.232.892.892 0 0 0-.217.4c-.1.498.323.736 1.277.736.4.018.8-.034 1.182-.154a.668.668 0 0 0 .291-.195.71.71 0 0 0 .16-.32m-.082-4.688c.697 0 1.147-.516 1.35-1.528a.974.974 0 0 0-.077-.736.696.696 0 0 0-.269-.215.667.667 0 0 0-.334-.057c-.701 0-1.164.511-1.398 1.556-.13.643.099.98.71.98m4.672-3.942-.513 1.547h-1.03c.071.374.071.76 0 1.134a3.229 3.229 0 0 1-1.119 1.838 3.258 3.258 0 0 1-2.136.745 4.444 4.444 0 0 0-.9.066.362.362 0 0 0-.215.1.389.389 0 0 0-.112.218c-.023.085 0 .16.126.253.441.137.892.237 1.349.3.796.146 1.349.38 1.61.76a1.67 1.67 0 0 1 .252 1.406c-.32 1.528-1.597 2.306-3.828 2.306a3.985 3.985 0 0 1-2.203-.469 1.13 1.13 0 0 1-.478-.554 1.19 1.19 0 0 1-.048-.744c.148-.675.787-1.224 1.93-1.58a1.129 1.129 0 0 1-.535-.543 1.197 1.197 0 0 1-.082-.774c.14-.656.666-1.092 1.578-1.303a1.84 1.84 0 0 1-.666-.904 1.921 1.921 0 0 1-.03-1.14 3.29 3.29 0 0 1 1.209-1.874 3.354 3.354 0 0 1 2.244-.788h3.597Zm-7.644 0-2.401 7.082h-1.92l2.37-7.082h1.95Zm-1.35-1.978c.068-.3.226-.569.45-.768.216-.192.487-.303.77-.314a.79.79 0 0 1 .358.079.825.825 0 0 1 .289.235.898.898 0 0 1 .121.768 1.59 1.59 0 0 1-.45.792 1.222 1.222 0 0 1-.786.3.746.746 0 0 1-.349-.072.777.777 0 0 1-.28-.228 1.052 1.052 0 0 1-.136-.792m-8.467.183-2.374 7.096h1.934c.48.01.959-.082 1.406-.268a3.615 3.615 0 0 0 1.197-.814 4.998 4.998 0 0 0 1.425-2.658c.116-.41.143-.843.078-1.265a2.95 2.95 0 0 0-.45-1.177 2.61 2.61 0 0 0-.994-.747 2.508 2.508 0 0 0-1.21-.19l-1.012.023Zm-1.452-1.772h3.228c1.628 0 2.77.469 3.431 1.444s.823 2.217.508 3.75a7.33 7.33 0 0 1-2.14 3.909 5.08 5.08 0 0 1-3.597 1.556h-5.01l3.58-10.659Z" fill="#000"/><path fill-rule="evenodd" clip-rule="evenodd" d="M52.194 41.53h1.11a1.54 1.54 0 0 0 1.012-.337c.12-.109.214-.245.276-.398a1.13 1.13 0 0 0 .08-.483 1.162 1.162 0 0 0-.08-.49 1.12 1.12 0 0 0-.276-.406 1.447 1.447 0 0 0-1.012-.323h-1.11v2.437Zm0 .643v2.709h-.657v-6.445h1.624a2.565 2.565 0 0 1 1.618.469c.2.169.357.384.46.628.105.245.152.51.139.778.01.26-.04.52-.143.758-.104.238-.26.447-.456.61a2.48 2.48 0 0 1-1.618.497l-.967-.004Zm5.826 2.085c.202.005.402-.034.588-.115.186-.08.353-.201.492-.354.146-.157.261-.344.338-.548a1.73 1.73 0 0 0 .111-.642c.006-.22-.03-.437-.108-.641a1.626 1.626 0 0 0-.342-.545c-.134-.16-.3-.288-.486-.376a1.372 1.372 0 0 0-.593-.13 1.352 1.352 0 0 0-.6.126 1.408 1.408 0 0 0-.492.38 1.64 1.64 0 0 0-.341.545 1.694 1.694 0 0 0-.11.64c-.006.444.156.872.45 1.191a1.387 1.387 0 0 0 1.093.469m0 .638c-.29.012-.578-.04-.847-.152a2.047 2.047 0 0 1-.713-.5 2.554 2.554 0 0 1-.617-1.67c0-.618.22-1.214.617-1.672a2.18 2.18 0 0 1 1.558-.663 2.18 2.18 0 0 1 1.558.663 2.58 2.58 0 0 1 .609 1.671c0 .616-.217 1.21-.609 1.671a2.04 2.04 0 0 1-.709.499 1.972 1.972 0 0 1-.842.153m4.748-1.168 1.214-3.571h.4l1.237 3.567 1.295-3.502h.602l-1.735 4.664h-.396l-1.214-3.497-1.228 3.497h-.39l-1.737-4.664h.666l1.286 3.506Zm8.419-1.72a1.489 1.489 0 0 0-.288-.67 1.159 1.159 0 0 0-.426-.337 1.11 1.11 0 0 0-.527-.099 1.17 1.17 0 0 0-.498.133 1.2 1.2 0 0 0-.401.336 2.143 2.143 0 0 0-.31.642l2.45-.005Zm-2.54.553a1.632 1.632 0 0 0 .472 1.172c.146.161.322.288.518.374.196.086.407.127.62.123.26 0 .519-.047.764-.14.26-.109.502-.257.72-.441l.143-.127v.722h-.045c-.223.202-.479.36-.755.469a2.343 2.343 0 0 1-1.284.1 2.4 2.4 0 0 1-1.153-.597 2.255 2.255 0 0 1-.479-.764 2.332 2.332 0 0 1-.147-.9 2.553 2.553 0 0 1 .54-1.678 1.76 1.76 0 0 1 .623-.494c.24-.114.503-.17.767-.162.267-.016.535.031.784.137.248.107.47.27.65.477a2.54 2.54 0 0 1 .495 1.589v.094l-3.233.047Zm5.238-1.659c.085-.165.2-.31.34-.428s.3-.205.473-.257a1.298 1.298 0 0 1 1.04.127.045.045 0 0 1 .04.033v.73c-.04-.023 0 0-.054 0-1.017-.59-1.637.259-1.84.835v2.934h-.624V40.19h.625v.713Zm6.461-1.791h-1.983v-.59H83v.59h-1.983v5.705h-.666V39.11Zm10.797.099v2.058h2.509v.61h-2.51v2.3h2.977v.615h-3.637v-6.197h3.52v.615h-2.86Zm4.776 1.603c.15-.194.34-.351.555-.459.216-.108.452-.164.69-.164.22-.009.437.031.639.117.202.085.385.215.535.38.1.11.185.233.257.365l.09-.155c.154-.216.353-.394.583-.517.23-.124.484-.19.743-.195.219-.01.436.03.639.116.202.086.385.216.535.38a1.768 1.768 0 0 1 .45 1.271v2.775h-.652V41.98a1.211 1.211 0 0 0-.284-.839.919.919 0 0 0-.34-.25.885.885 0 0 0-.41-.069 1.227 1.227 0 0 0-.945.525 1.456 1.456 0 0 0-.216.291v3.089h-.652V41.98a1.205 1.205 0 0 0-.283-.839.945.945 0 0 0-.341-.247.908.908 0 0 0-.41-.072c-.186.01-.368.062-.532.153-.165.09-.309.218-.421.372-.08.092-.153.19-.22.291v3.089h-.64v-4.453h.63v.539Z" fill="#000"/><path d="M103.032 40.283h.652v.562c.136-.239.353-.417.607-.501a2.072 2.072 0 0 1 1.215-.12c.408.084.784.288 1.083.589a2.74 2.74 0 0 1 .589 1.685 2.742 2.742 0 0 1-.567 1.694c-.782.89-1.929.69-2.864.173l-.063-.042v2.17h-.652v-6.21Zm2.626.81c-.54-.365-1.326-.28-1.961.605v1.814c.661.741 1.516.811 2.082.38.199-.176.356-.397.46-.646a1.844 1.844 0 0 0-.067-1.566 1.758 1.758 0 0 0-.514-.6m-43.28-5.76h-12.32v.74h12.32v-.74Zm65.975 0H72.298v.74h56.055v-.74Z" fill="#000"/><path fill-rule="evenodd" clip-rule="evenodd" d="M84.771 44.136a1.372 1.372 0 0 0 1.079-.469c.294-.319.455-.745.45-1.186a1.765 1.765 0 0 0-.45-1.195 1.353 1.353 0 0 0-.488-.363 1.3 1.3 0 0 0-.59-.106 1.36 1.36 0 0 0-.594.11 1.4 1.4 0 0 0-.495.359 1.72 1.72 0 0 0-.45 1.195c-.004.219.033.436.11.64.078.204.193.39.34.546.14.152.31.273.497.354.187.08.389.12.591.114m0 .643a2.018 2.018 0 0 1-.846-.155 2.088 2.088 0 0 1-.714-.497 2.307 2.307 0 0 1-.47-.767 2.38 2.38 0 0 1-.146-.897c-.014-.31.034-.619.14-.908.106-.29.268-.553.476-.775a2.07 2.07 0 0 1 .713-.503 2 2 0 0 1 .847-.157c.29-.012.577.042.844.156.268.114.509.286.708.505.206.219.368.479.475.765.108.286.158.591.15.898.007.307-.045.612-.152.898a2.324 2.324 0 0 1-.473.766 2.086 2.086 0 0 1-.71.495 2.017 2.017 0 0 1-.842.157m25.385-.623a1.426 1.426 0 0 0 1.079-.469c.294-.318.456-.744.45-1.186a1.755 1.755 0 0 0-.45-1.195 1.486 1.486 0 0 0-.492-.36 1.433 1.433 0 0 0-1.179 0 1.486 1.486 0 0 0-.492.36 1.707 1.707 0 0 0-.45 1.195 1.64 1.64 0 0 0 .45 1.186 1.415 1.415 0 0 0 1.079.469m0 .642a1.986 1.986 0 0 1-.847-.153 2.057 2.057 0 0 1-.713-.499 2.289 2.289 0 0 1-.472-.766 2.362 2.362 0 0 1-.144-.898c-.014-.31.035-.62.142-.91.108-.29.272-.553.483-.772.2-.22.443-.392.712-.506.269-.114.558-.167.848-.155.29-.01.579.044.848.158.268.114.511.285.713.503.201.221.359.483.463.768.104.286.153.59.144.895a2.405 2.405 0 0 1-.607 1.665 2.1 2.1 0 0 1-.715.495 2.023 2.023 0 0 1-.846.156m4.753-.974 1.219-3.59h.409l1.218 3.58 1.296-3.505h.62l-1.736 4.654h-.395l-1.223-3.487-1.219 3.487h-.4l-1.736-4.654h.657l1.29 3.515Zm8.44-1.777a1.445 1.445 0 0 0-.288-.67 1.148 1.148 0 0 0-.424-.337 1.104 1.104 0 0 0-.525-.099 1.124 1.124 0 0 0-.501.128 1.172 1.172 0 0 0-.398.34c-.144.191-.249.41-.31.643l2.446-.005Zm-2.536.553a1.67 1.67 0 0 0 .12.637c.081.201.201.383.352.535.145.16.32.286.514.372.194.086.404.128.614.125.261 0 .52-.048.765-.14.259-.104.5-.253.71-.441l.158-.127v.722h-.032a2.58 2.58 0 0 1-.769.469 2.351 2.351 0 0 1-1.288.1 2.413 2.413 0 0 1-1.158-.597 2.345 2.345 0 0 1-.62-1.664c-.02-.608.17-1.203.535-1.678a1.93 1.93 0 0 1 .637-.48 1.867 1.867 0 0 1 1.538-.02c.244.107.465.264.649.462a2.54 2.54 0 0 1 .503 1.59v.093l-3.228.042Zm5.234-1.706c.086-.162.202-.304.341-.42.139-.114.299-.2.47-.25a1.297 1.297 0 0 1 1.028.127s.031 0 .049.023v.76c-.054-.062 0 0-.054-.033-1.02-.596-1.636.262-1.839.824v2.935h-.625v-4.669h.63v.703Z" fill="#000"/></g><defs><clipPath id="Digital_india__a"><path fill="#fff" d="M0 0h138v60H0z"/></clipPath><filter id="Digital_india__b" x="-16.367" y="-20" width="171.02" height="100" filterUnits="userSpaceOnUse" color-interpolation-filters="sRGB"><feFlood flood-opacity="0" result="BackgroundImageFix"/><feBlend in="SourceGraphic" in2="BackgroundImageFix" result="shape"/><feGaussianBlur stdDeviation="10" result="effect1_foregroundBlur_1475_709"/></filter></defs></svg>