<svg width="109" height="31" fill="none" xmlns="http://www.w3.org/2000/svg"><path d="M86.682 1.087c.108-.973 1.38-1.41 2.08-.82.081.222.041.466.061.697-.287-.09-.58-.159-.88-.15-.212.17-.447.388-.385.7.145.453.544.737.832 1.087.172.008.346.013.52.018-.004.324.004.647-.024.97-.18-.008-.36-.01-.538-.01.002.451.007.904-.006 1.356-.71-.02-1.421-.007-2.132-.004.204.365.46.98.971.791.404-.15.844-.238 1.269-.13.305.14.348.524.371.83-.026.392-.122.804-.387 1.1-.21.255-.505.402-.78.563.335.29.756.447 1.096.733a8.954 8.954 0 0 0-.643.76c-.581-.365-1.15-.764-1.644-1.25-.391-.054-.855 0-1.158-.322-.238-.184-.222-.518-.194-.791.122-.3.419-.429.712-.466.467.049.774.42 1.088.731.494.032.969-.774.565-1.178-.29.03-.54.245-.839.216-.698-.033-1.204-.654-1.493-1.259-.197-.369-.11-.904.295-1.074.456-.061.92-.015 1.38-.023.15-.015.325.046.459-.053.01-.181 0-.363-.007-.543-1.028.029-2.059-.011-3.088.018-.028 1.573-.008 3.148-.01 4.722-.387.002-.774 0-1.162.005V3.578a16.82 16.82 0 0 0-1.036.01c.029 1.572.008 3.147.007 4.72-.368 0-.737 0-1.103-.003-.003-.712-.012-1.423.003-2.134a2.8 2.8 0 0 1-.522.049c.054.55-.052 1.189-.544 1.499-.662.39-1.583.373-2.17-.161-.574-.51-1.08-1.163-1.277-1.927.27-.128.55-.23.813-.371.282.447.419.993.8 1.369.255.222.585.42.93.366.441-.15.558-.834.198-1.137-.249-.267-.624-.204-.945-.204-.103-.206-.194-.418-.286-.628.348-.189.778-.252 1.005-.623.016-.26-.01-.527-.223-.696-.461-.056-.828.257-1.107.597-.17-.32-.286-.665-.449-.987.62-.608 1.653-.769 2.38-.276.606.415.7 1.45.138 1.943.224.13.434.301.685.372.187-.03.412-.046.545-.204.054-.517-.004-1.04.036-1.558-.224-.01-.446-.017-.668-.036.003-.32.003-.64.011-.96 2.409.026 4.82.022 7.227.002-.362-.427-.903-.869-.777-1.513Zm6.544-.824c.718-.34 1.583-.258 2.26.15.745.44 1.235 1.238 1.531 2.052.03 1.946-.007 3.894.019 5.84-.39.006-.78.006-1.17-.002.014-1.574.004-3.15.004-4.725-.34-.004-.678-.002-1.015-.002a350.07 350.07 0 0 0-.001 4.73c-.374.004-.748.004-1.12-.003-.002-.752.008-1.505-.003-2.258.03-.265-.284-.123-.421-.12a4.858 4.858 0 0 1-.553-.963c.325.02.652.027.98.007 0-.465 0-.928-.006-1.392-.399.006-.798-.025-1.194.01-.095.654.181 1.41-.244 1.976-.156.243-.439.333-.688.429.45.554.894 1.113 1.33 1.679-.297.235-.598.466-.894.704-.722-1.127-1.524-2.198-2.206-3.352.265-.212.543-.408.818-.609.116.263.271.511.516.665.065-.06.13-.12.198-.18-.003-.444.007-.887-.01-1.331-.355.01-.706.01-1.058.01l.002-.969c.837.001 1.675.02 2.513-.01-.32-.408-.407-.952-.306-1.46.112-.378.384-.692.718-.876m.505.8c-.444.267-.432 1.005-.026 1.302.427.324.975.24 1.47.25.253-.008.534.064.751-.112-.2-.45-.452-.9-.86-1.176-.381-.266-.889-.507-1.335-.264ZM48.082 4.858a14.784 14.784 0 0 1 8.19-2.764c1.838-.041 3.678.003 5.517-.024.011 2.897.002 5.796.004 8.693-6.18.014-12.36.006-18.54.002 1.037-2.384 2.761-4.427 4.829-5.907ZM.002 2.563c1.486.02 2.976-.05 4.46.053 2.26-.02 4.522.025 6.782-.023.61.947 1.127 1.954 1.703 2.923.999 1.753 2.01 3.499 3 5.258-5.313-.007-10.627-.007-15.94-.001C-.005 8.036.004 5.3.001 2.563Zm18.838.009c3.066-.022 6.134-.004 9.202-.01-.009 2.74.017 5.481-.013 8.22-3.055-.023-6.11-.02-9.166-.002-.037-2.736.008-5.472-.024-8.208Zm11.803-.01 9.618.001c-.02 2.733-.002 5.466-.009 8.198-3.202.021-6.403-.003-9.605.011-.01-2.737 0-5.473-.004-8.21Zm36.162.054c3.004-.008 6.008.002 9.012-.005-.004.322-.008.643-.005.965-.218 0-.436 0-.652.008a574.04 574.04 0 0 1 0 4.732c-.37-.012-.74-.008-1.11-.01-.001-.903.005-1.803-.005-2.705-.433.008-.865.006-1.297 0 .012.344.02.703-.151 1.01-.16-.004-.351.073-.479-.063-.377-.348-.736-.733-.996-1.185a.72.72 0 0 1-.073-.548c.127-.227.408-.224.63-.23.79.004 1.581.008 2.373-.003 0-.335-.001-.67-.004-1.005a528.887 528.887 0 0 0-3.711.002c-.009.664.014 1.328-.01 1.99-.06.493-.566.679-.968.776-.31-.276-.631-.536-.926-.83.254.001.517 0 .748-.13-.005-.6-.024-1.2.007-1.798a19.796 19.796 0 0 0-1.221-.004c0 .813.003 1.626-.002 2.439.7.668 1.463 1.26 2.175 1.916a.88.88 0 0 1 .3.705c.021.457-.415.74-.781.867-.156-.005-.374.055-.47-.11-.135-.18-.248-.376-.365-.569.237.055.47-.022.575-.26-.853-.764-1.736-1.491-2.598-2.243.015-1.238.005-2.475.004-3.712Zm-.09 7.716c.444.008.887-.002 1.33.007a129.276 129.276 0 0 0 2.26 4.086c-.037-1.361 0-2.724-.025-4.085.403 0 .807-.002 1.211-.013.005 2.034.02 4.069-.007 6.103a15.18 15.18 0 0 0-1.244-.003c-.821-1.386-1.54-2.838-2.388-4.207.063 1.397-.007 2.797.03 4.195-.39.006-.782.004-1.172-.002.015-2.027.005-4.054.005-6.08Zm12.903.008c.404-.006.808-.006 1.212-.005-.001.37 0 .74-.014 1.11l-1.19-.001a62.49 62.49 0 0 1-.008-1.105Zm16.252-.008c.4.005.802.004 1.204 0 .008 2.03-.003 4.058.006 6.086-.406 0-.811.002-1.216-.007.02-2.026.004-4.053.005-6.079Zm-18.85.393c.385.001.77 0 1.157-.012.008.42.005.84.005 1.262.23.001.46-.003.691-.006.008.294.01.589.002.883-.232-.005-.463-.01-.695-.004.013.853-.017 1.706.015 2.558.13.236.465.12.683.145-.004.304.002.609.002.913-.504-.031-1.037.095-1.511-.127-.233-.11-.342-.399-.351-.65.004-.948.01-1.896-.001-2.844-.198 0-.394 0-.59-.002a5.974 5.974 0 0 1 .003-.865c.197 0 .396.001.594-.002.001-.416 0-.833-.004-1.249Zm6.219 1.065c.646-.067 1.357.02 1.87.47.913.903.995 2.527.245 3.562-.432.593-1.193.796-1.879.741-.605.013-1.242-.236-1.6-.76-.643-.907-.657-2.24-.046-3.17.314-.493.855-.776 1.41-.843m-.222 1.216c-.332.289-.374.765-.433 1.18.061.333.068.7.276.982.314.472 1.035.514 1.419.11.275-.298.335-.732.356-1.129-.03-.468-.138-1.059-.615-1.248-.323-.175-.713-.097-1.003.105Zm-9.685-1.094c.666-.153 1.392-.132 2.03.142.391.166.637.603.635 1.036.009.9-.004 1.8.001 2.701-.002.237.194.402.286.603-.45.02-.91.067-1.355-.015-.06-.14-.036-.295-.046-.443-.37.349-.826.664-1.348.63-.597.046-1.253-.322-1.378-.965-.021-.396-.07-.838.16-1.183.264-.46.8-.591 1.268-.685.383-.079.817-.025 1.152-.268.215-.19.05-.531-.187-.598-.286-.095-.624-.128-.886.048-.17.11-.207.33-.28.508-.373-.004-.744.006-1.115-.008-.014-.679.409-1.348 1.063-1.502m.234 2.745c-.177.081-.219.296-.295.46.038.123.075.247.11.371.345.254.86.2 1.168-.098.303-.265.273-.727.297-1.1-.407.196-.875.173-1.28.367Zm14.133-2.231c.248-.257.514-.527.877-.583.434-.034.905-.058 1.289.193.41.208.613.69.621 1.145 0 1.078-.01 2.155.002 3.233a45.67 45.67 0 0 1-1.21-.001c-.006-1 .013-1.999-.01-2.997-.02-.643-.903-.752-1.26-.346-.284.277-.277.703-.307 1.075a141.93 141.93 0 0 0 0 2.27c-.387.002-.775 0-1.162.005.001-1.502-.005-3.002.004-4.502.386.01.772.006 1.159.016-.003.163-.006.327-.003.492Zm4.446-.449c.646-.228 1.376-.207 2.025.006.43.12.805.514.812.994.015.907-.002 1.813.006 2.72-.01.264.177.468.281.693-.424.05-.851.018-1.276.03a5.233 5.233 0 0 0-.11-.15v-.344c-.389.41-.93.703-1.498.637-.576-.005-1.186-.444-1.242-1.07-.032-.374-.027-.779.187-1.1.197-.361.605-.498.968-.6.443-.127.924-.077 1.353-.26.225-.124.218-.463.019-.607a1.015 1.015 0 0 0-1.057.015c-.12.135-.176.317-.255.478-.37-.002-.74.003-1.11 0 .024-.604.325-1.228.897-1.442m.443 2.666c-.324.138-.386.646-.14.886.37.24.877.109 1.178-.194.209-.294.215-.675.21-1.024-.408.146-.852.154-1.248.332ZM.01 11.865c2.72.036 5.44.005 8.16.016 2.818-.008 5.637.014 8.456-.012.623 1.017 1.216 2.054 1.823 3.08.194.324.363.667.609.954-.063-1.34-.163-2.677-.22-4.017 3.067-.019 6.134.011 9.2-.015.013 1.416.002 2.834.005 4.25-9.347.007-18.694.01-28.042-.002.009-1.418-.01-2.835.01-4.254Zm30.64.002c3.2.032 6.4.007 9.6.011 0 1.42.012 2.839-.005 4.257-3.201-.025-6.403.006-9.604-.016.009-1.418-.009-2.835.01-4.252Zm11.968.542c.08-.196.066-.58.362-.525 3.548 0 7.097-.016 10.645.006-.798.77-1.486 1.711-1.741 2.831-.15.455-.158.936-.227 1.407-3.23-.007-6.461.003-9.691-.005.094-1.257.281-2.51.652-3.714Zm37-.484c.402.002.805.001 1.21.007a670.18 670.18 0 0 0 .002 4.484c-.404.004-.807.003-1.21-.003 0-1.496.005-2.991-.002-4.488ZM.001 17.237h27.845c.074.704.083 1.414.14 2.12-.006.442.098.88.04 1.323-5.61-.04-11.222.015-16.832-.028-.624-1.004-1.171-2.063-1.773-3.082l-.109-.062c.13 1.049.135 2.112.257 3.163-3.186-.005-6.372-.014-9.558.005-.023-1.146-.002-2.293-.01-3.439Zm30.641 0 9.619.001c-.018 1.141-.01 2.283-.003 3.425-3.203.014-6.406-.01-9.608.011-.017-1.146-.002-2.29-.008-3.437ZM42 17.243c3.26-.008 6.52-.013 9.78.002.138.91.517 1.774 1.064 2.497.245.336.563.603.831.918-3.703.025-7.406-.018-11.108.022-.345-1.112-.511-2.275-.568-3.44Zm32.15.435c.443-.414 1.078-.297 1.622-.282-.005.338-.004.677-.01 1.015a12.21 12.21 0 0 1-.354-.086c-.11.074-.338.074-.325.258-.017.14-.018.28-.005.42.24.052.49.013.737.02-.001.29-.004.58 0 .87a96.688 96.688 0 0 0-.741-.001c-.003 1.209-.003 2.417-.003 3.626-.401 0-.802-.005-1.203 0-.009-1.209.005-2.418-.009-3.628-.2 0-.4.002-.599.004-.003-.288-.005-.575-.009-.862.203-.006.406-.008.61-.01.003-.456-.019-.979.289-1.344Zm-7.516-.248 1.237.001c.003 2.03.017 4.059-.006 6.088-.413 0-.826-.005-1.24.001.002-2.03-.015-4.061.009-6.09Zm32.017-.049c.39 0 .78.003 1.17.004-.002.369 0 .738-.008 1.106-.387.002-.775.001-1.16.001.007-.37.005-.74-.002-1.11Zm-2.629.38c.382.004.765.007 1.148.008-.002.419-.005.839.005 1.258.228-.001.457-.007.688-.009.003.292.003.583.002.875-.233.003-.464-.002-.693-.004.01.882-.029 1.767.018 2.65.217.077.445.118.677.084-.002.309 0 .619-.004.929-.547-.005-1.178.115-1.64-.266-.29-.288-.199-.75-.215-1.125.005-.753-.003-1.506.005-2.258-.201-.013-.403-.015-.603-.018a24.077 24.077 0 0 1-.004-.858c.192-.03.425.073.596-.053.021-.405-.006-.81.02-1.213Zm-25.508 1.261c.572-.24 1.273-.195 1.781.184.34.25.463.704.455 1.12-.004 1.066.005 2.134-.004 3.2a13.527 13.527 0 0 0-1.204-.009c-.002-1.027.016-2.055-.006-3.082-.092-.68-1.12-.711-1.377-.141a1.44 1.44 0 0 0-.149.61c-.009.875.017 1.749-.013 2.623a24.63 24.63 0 0 0-1.184-.02c-.025-1.509.004-3.017-.017-4.524.393-.012.786-.011 1.18-.003-.01.18-.023.36-.035.54.195-.16.36-.362.573-.498Zm7.058-.097c.646-.162 1.353-.113 1.944.214.546.363.88 1.001.975 1.658.067.725-.018 1.518-.482 2.098-.41.595-1.162.774-1.828.766-.537-.058-1.125-.169-1.5-.611-.73-.837-.842-2.172-.31-3.148.24-.488.684-.86 1.201-.977m.473.978c-.3.062-.534.308-.644.597-.194.526-.19 1.142.062 1.645.266.53.997.59 1.433.266.295-.282.362-.718.395-1.113-.01-.41-.068-.87-.376-1.163-.217-.246-.57-.3-.87-.232Zm4.728-.791c.279-.212.636-.232.968-.256.02.426.012.852.013 1.277-.366.015-.805-.093-1.084.224-.292.249-.289.67-.309 1.028-.008.711.006 1.424-.012 2.136-.384 0-.766-.007-1.149-.007-.002-1.51.02-3.023-.01-4.534.369-.007.74-.005 1.11-.007.01.225.015.45.027.677.137-.188.268-.387.446-.538Zm3.293-.127c.615-.258 1.418-.071 1.737.572.395-.526 1.073-.819 1.702-.617.545.108.951.64.986 1.204-.01 1.124-.01 2.248-.005 3.373-.402.003-.804-.004-1.205-.01-.004-.997-.002-1.994-.001-2.991.02-.33-.288-.633-.605-.58-.417-.05-.702.387-.7.779.005.93.004 1.859.003 2.789-.403.017-.806.014-1.208.005.01-.9-.004-1.802.007-2.703-.006-.224.013-.49-.156-.658-.328-.433-1.15-.19-1.147.382-.009.995-.002 1.992-.004 2.988-.401 0-.802-.004-1.202 0 .008-1.516-.03-3.032.01-4.546.367.02.742-.034 1.107.033.003.177-.012.355-.012.533.216-.202.394-.476.693-.553Zm5.636.343c.553-.461 1.315-.515 1.991-.406.412.091.89.21 1.127.609.238.38.155.848.167 1.275.008.68-.02 1.362.014 2.042.006.244.178.429.282.634a7.018 7.018 0 0 1-1.32.016c-.084-.126-.05-.297-.08-.438-.323.213-.634.484-1.025.537-.406.03-.852.064-1.2-.198-.553-.333-.635-1.115-.442-1.692.173-.503.676-.781 1.159-.865.442-.104.94-.035 1.34-.296.245-.176.067-.591-.196-.627-.272-.05-.567-.069-.829.036-.179.106-.231.323-.304.507-.377.01-.754.017-1.13-.004.009-.125.021-.248.034-.372.101-.27.186-.569.412-.758m1.034 2.317c-.351.097-.593.554-.345.88.296.37.83.214 1.147-.042.323-.265.281-.739.31-1.12-.356.159-.742.191-1.112.282Zm8.826-2.586c.722-.292 1.595-.248 2.256.188.439.303.573.865.634 1.376-.402-.007-.805-.002-1.206-.014-.063-.272-.193-.571-.475-.656-.237-.025-.507-.062-.706.103-.346.255-.426.728-.44 1.14-.004.409.032.862.301 1.186.214.26.582.233.878.195.291-.124.374-.47.438-.756.394.002.788-.001 1.183.007-.015.667-.423 1.272-.967 1.601-.625.306-1.371.289-2.006.022-.924-.443-1.125-1.642-1.024-2.59.067-.74.441-1.513 1.134-1.802Zm4.262-.023c.444-.224.954-.162 1.432-.148.451.07.942.245 1.206.658.163.242.193.543.247.825-.369.005-.739-.014-1.105.025-.121-.206-.219-.467-.466-.534-.336-.12-.859-.124-1.018.277-.002.125.051.255.174.302.714.304 1.587.255 2.192.816.575.578.388 1.677-.298 2.077-.728.406-1.619.4-2.396.157-.594-.19-1.005-.828-.969-1.47.376-.012.755.017 1.13-.033.076.167.129.348.235.5.341.265.82.27 1.212.133.241-.093.321-.461.062-.587-.692-.325-1.515-.301-2.152-.763-.289-.213-.369-.6-.341-.948-.032-.568.371-1.071.855-1.287Zm-7.174-.061c.39 0 .781-.003 1.172.005-.021 1.514.015 3.027-.017 4.541-.382 0-.765-.007-1.147-.007-.004-1.512.013-3.026-.008-4.539ZM.006 21.766c3.2.022 6.402-.01 9.604.018.007.738-.026 1.477.057 2.211H.001c.002-.743-.003-1.487.005-2.229Zm11.922.003c5.369.002 10.738.016 16.106-.004.02.743.005 1.487.01 2.23-4.83 0-9.66-.002-14.49 0-.305.064-.393-.294-.541-.489-.361-.579-.731-1.153-1.085-1.737Zm18.719-.003c3.2.026 6.402-.013 9.603.017.008.737-.004 1.474.004 2.21-3.204.005-6.407.001-9.611.002.001-.743-.004-1.487.004-2.229Zm12.288.004c6.286.016 12.57-.016 18.856.013.008.737-.004 1.473.004 2.21-5.943.004-11.886.003-17.829 0-.367-.728-.798-1.43-1.031-2.223Zm25.231 3.015c.666-.237 1.407-.21 2.069.029.808.288 1.392 1.123 1.434 2.007-.418-.058-.846.015-1.258-.044-.132-.276-.202-.607-.467-.787-.498-.334-1.262-.333-1.668.16-.412.45-.508 1.112-.497 1.71-.012.568.084 1.199.5 1.607a1.23 1.23 0 0 0 1.642.13c.283-.19.339-.564.491-.851.404-.07.826 0 1.236-.014-.087.805-.54 1.575-1.234 1.96-.747.413-1.673.388-2.445.059-.695-.305-1.169-1-1.364-1.74-.19-.903-.203-1.881.126-2.752.252-.672.777-1.233 1.435-1.474Zm13.726.328c.387-.02.775-.008 1.165-.006a93.48 93.48 0 0 0 0 1.253c.23.004.46-.002.69-.007.009.297.009.595-.01.891-.226-.01-.45-.019-.673-.026-.017.727-.002 1.456-.013 2.184.004.162-.017.335.056.486.211.058.432.041.65.059-.004.298-.004.596-.012.895-.506.066-1.058.117-1.527-.136-.25-.136-.322-.444-.321-.715-.004-.844.002-1.688 0-2.532.073-.383-.398-.191-.6-.235a33.228 33.228 0 0 1-.007-.858c.194-.028.424.066.598-.053.022-.4.003-.8.004-1.2Zm-81.891.041h9.7c.002.515.015 1.03-.01 1.545-3.23-.003-6.46 0-9.69 0v-1.545Zm14.041.041c.36-.066.728-.039 1.092-.042h12.91v1.545c-4.339.004-8.676-.007-13.014.005-.346-.49-.624-1.03-.988-1.508Zm16.6-.042 9.619.001c-.017.514-.01 1.028-.008 1.542-3.203.005-6.406.001-9.61.002v-1.545Zm14.102.042c.312-.057.63-.044.945-.042l16.113.001c-.017.514-.01 1.028-.007 1.542-5.253.008-10.505-.005-15.757.006-.483-.453-.857-1.01-1.294-1.507Zm27.57 2.166c.317-.782 1.17-1.224 1.964-1.152.636-.034 1.307.217 1.693.762.408.55.48 1.275.447 1.947-1.052-.008-2.104.018-3.155-.01.024.389.185.821.567.96a1.002 1.002 0 0 0 1.358-.42c.399.003.798-.003 1.197.015-.156.686-.7 1.245-1.356 1.411-.77.214-1.655.086-2.284-.443-.412-.338-.61-.888-.642-1.42-.005-.554-.044-1.141.211-1.65m1.466-.042c-.29.143-.406.478-.497.774.638.01 1.278.022 1.917-.01-.038-.705-.855-1.078-1.42-.764Zm4.682-.912a1.82 1.82 0 0 1 1.853.103c.391.27.491.793.516 1.247l-.004 3.045a45.116 45.116 0 0 0-1.204 0l.001-2.557c.001-.24-.012-.492-.118-.71-.111-.215-.36-.263-.56-.343-.248.07-.553.1-.697.354a1.54 1.54 0 0 0-.208.786c.002.822.004 1.646 0 2.47-.387-.005-.773.006-1.159-.008.003-1.495 0-2.989.001-4.482h1.107c.008.184.017.369.035.553.15-.148.263-.338.437-.457Zm7.637-.062c.243-.144.528-.13.799-.148.018.43.011.861.01 1.292a10.61 10.61 0 0 1-.367-.087c-.386.057-.825.222-.945.653-.161.905-.044 1.83-.076 2.745a51.903 51.903 0 0 0-1.164.004c-.006-1.495.024-2.992-.014-4.486.37-.008.742-.006 1.113-.008.01.227.017.455.035.681.166-.247.335-.518.609-.646Zm1.492.587c.416-.527 1.092-.777 1.736-.723.698-.033 1.43.307 1.782.952.346.513.313 1.162.305 1.757-1.048.005-2.095-.013-3.141.017.038.39.226.792.594.944.456.241 1.085.074 1.32-.416a20.09 20.09 0 0 1 1.204-.01c-.121.714-.704 1.272-1.37 1.431-.657.16-1.384.11-1.975-.252-.53-.282-.842-.877-.913-1.474-.106-.762-.03-1.613.458-2.226m.714 1.168c.635 0 1.27.003 1.905-.004-.003-.569-.551-.953-1.064-.879-.467.008-.75.452-.84.883ZM.01 27.805c3.24.002 6.48.011 9.718-.004.081.382.073.774.075 1.163-3.264.019-6.529-.01-9.793.014a16.47 16.47 0 0 1 0-1.173Zm15.722-.001c4.104.018 8.21-.018 12.313.018-.004.386.005.773-.018 1.16-3.772-.03-7.546-.004-11.319-.013-.104-.014-.247.03-.31-.085-.238-.35-.448-.718-.666-1.08Zm14.918.001c3.2.003 6.4.006 9.598 0 .009.387.003.776.007 1.165-3.2.005-6.401-.014-9.6.01a14.545 14.545 0 0 1-.005-1.175Zm16.604.029c1.425-.061 2.855-.01 4.28-.027 3.42 0 6.838.003 10.257-.002.006.389.001.777.005 1.166-4.26-.003-8.52 0-12.78-.002a.556.556 0 0 1-.395-.116c-.46-.334-.943-.632-1.367-1.019Zm3.808 2.225c3.574.046 7.15-.002 10.727.025 0 .22.005.443.007.665-2.897.007-5.794.006-8.69 0a5.691 5.691 0 0 1-2.044-.69Zm-51.055.009c3.275.029 6.551.017 9.826-.001.01.259.025.52-.008.779-3.272.012-6.546-.002-9.82.008a20.157 20.157 0 0 1 .002-.786Zm17.169.024c3.617-.033 7.238.018 10.856-.025.01.26.025.521-.008.78-3.435.007-6.871.005-10.307 0-.245-.174-.36-.51-.541-.755Zm13.465-.006c3.204-.004 6.407-.01 9.61.002.001.257.002.514 0 .772-3.201-.02-6.402-.008-9.603-.007a42.699 42.699 0 0 1-.007-.767Z" fill="#3498DB"/></svg>